<svg xmlns="http://www.w3.org/2000/svg" viewBox="0 0 24 24" fill="none">
  <path d="M14.314 2.633L8.878 8.069 11.06 10.25l8.062-8.063L14.314 2.633z" fill="#42A5F5"/>
  <path d="M19.122 8.069l-5.436 5.436-2.182-2.181 5.436-5.436L19.122 8.069z" fill="#0277BD"/>
  <path d="M8.878 8.069l2.182 2.181-2.182 2.182L6.696 10.25l2.182-2.181z" fill="#42A5F5"/>
  <path d="M11.06 10.25l2.182 2.182-2.182 2.181-2.182-2.181L11.06 10.25z" fill="#0288D1"/>
  <path d="M13.242 12.432l2.182 2.181-2.182 2.182-2.182-2.182 2.182-2.181z" fill="#0277BD"/>
  <path d="M6.696 10.25l2.182 2.182-2.182 2.181L4.514 12.432 6.696 10.25z" fill="#29B6F6"/>
</svg>