<svg xmlns="http://www.w3.org/2000/svg" viewBox="0 0 24 24" fill="none">
  <path d="M14.25.18l.9.2.73.26.59.3.45.32.34.34.25.34.16.33.1.3.04.26.02.25-.01.23-.05.22-.08.24-.15.33-.21.45-.13.26-.09.16-.05.12-.03.06-.2.36-.34.58-.75 1.42-.67 1.44-.35.8-.06.16-.08.17-.08.17-.13.16-.14.2-.16.25-.26.36-.36.48-.4.52-.47.59-.5.64-.37.55-.25.45-.13.27-.06.17-.04.22-.02.26v.25l.01.25.02.23.03.22.04.23.05.23.06.22.07.21.08.2.09.2.1.18.11.18.12.17.13.16.14.14.15.13.16.12.17.1.18.09.19.07.2.06.21.04.22.03.24.01h.24l.23-.01.22-.02.21-.04.19-.05.19-.07.18-.08.17-.1.16-.11.15-.13.14-.14.13-.16.12-.17.11-.18.1-.18.09-.2.08-.2.07-.21.06-.22.05-.23.04-.23.03-.22.02-.23.01-.25v-.25l-.02-.26-.04-.22-.06-.17-.13-.27-.25-.45-.37-.55-.5-.64-.47-.59-.4-.52-.36-.48-.26-.36-.16-.25-.14-.2-.13-.16-.08-.17-.08-.17-.06-.16-.35-.8-.67-1.44-.75-1.42-.34-.58-.2-.36-.03-.06-.05-.12-.09-.16-.13-.26-.21-.45-.15-.33-.08-.24-.05-.22-.01-.23.02-.25.04-.26.1-.3.16-.33.25-.34.34-.34.45-.32.59-.3.73-.26.9-.2.22-.04.24-.02.25.01.25.03.24.05.22.08.2.11.18.15.15.18.13.22.1.26.07.29.04.32.01.35-.01.36-.04.35-.08.33-.12.31-.17.27-.22.23-.27.18-.32.14-.37.09-.42.05-.47.01-.52-.03-.56-.08-.6-.14-.64-.2-.67-.26-.7-.33-.72-.39-.74-.46-.75-.53-.75-.6-.74-.67-.72-.74-.69-.8-.66-.87-.62-.94-.57-1-.51-1.08-.45-1.15-.38-1.22-.3-1.28-.22-1.35-.13-1.4-.04-1.46.05-1.5.14-1.54.23-1.57.32-1.59.4-1.61.49-1.61.58-1.6.66-1.58.75-1.55.83-1.51.91-1.46.99-1.4 1.07-1.33 1.14-1.25 1.21-1.16 1.28-1.06 1.34-.96 1.4-.85 1.45-.74 1.49-.62 1.52-.5 1.54-.38 1.55-.26 1.55-.13 1.54-.01 1.52.12 1.49.24 1.45.36 1.4.48 1.34.59 1.27.69 1.19.79 1.1.88.99.96.88 1.04.76 1.11.63 1.17.49 1.22.35 1.26.2 1.29.05 1.31-.1 1.32-.25 1.31-.4 1.3-.54 1.27-.68 1.23-.81 1.18-.94 1.12-1.06 1.05-1.17.97-1.27.88-1.36.78-1.44.68-1.51.57-1.57.45-1.61.33-1.65.2-1.67.07-1.68-.06-1.68-.19-1.66-.31-1.63-.43-1.59-.54-1.54-.65-1.48-.75-1.4-.84-1.31-.93-1.21-1.01-1.1-1.08-.98-1.15-.85-1.2-.72-1.25-.58-1.28-.44-1.3-.3-1.31-.15-1.31V.18zm-9.66.01l-.42.05-.37.09-.32.14-.27.18-.22.23-.17.27-.12.31-.08.33-.04.35-.01.36.01.35.04.32.07.29.1.26.13.22.15.18.18.15.2.11.22.08.24.05.25.03.25.01.24-.02.22-.04.9-.2.73-.26.59-.3.45-.32.34-.34.25-.34.16-.33.1-.3.04-.26.02-.25-.01-.23-.05-.22-.08-.24-.15-.33-.21-.45-.13-.26-.09-.16-.05-.12-.03-.06-.2-.36-.34-.58-.75-1.42-.67-1.44-.35-.8-.06-.16-.08-.17-.08-.17-.13-.16-.14-.2-.16-.25-.26-.36-.36-.48-.4-.52-.47-.59-.5-.64-.37-.55-.25-.45-.13-.27-.06-.17-.04-.22-.02-.26v-.25l.01-.25.02-.23.03-.22.04-.23.05-.23.06-.22.07-.21.08-.2.09-.2.1-.18.11-.18.12-.17.13-.16.14-.14.15-.13.16-.12.17-.1.18-.09.19-.07.2-.06.21-.04.22-.03.24-.01h.24l.23.01.22.02.21.04.19.05.19.07.18.08.17.1.16.11.15.13.14.14.13.16.12.17.11.18.1.18.09.2.08.2.07.21.06.22.05.23.04.23.03.22.02.23.01.25v.25l-.02.26-.04.22-.06.17-.13.27-.25.45-.37.55-.5.64-.47.59-.4.52-.36.48-.26.36-.16.25-.14.2-.13.16-.08.17-.08.17-.06.16-.35.8-.67 1.44-.75 1.42-.34.58-.2.36-.03.06-.05.12-.09.16-.13.26-.21.45-.15.33-.08.24-.05.22-.01.23.02.25.04.26.1.3.16.33.25.34.34.34.45.32.59.3.73.26.9.2z" fill="#306998"/>
  <path d="M8.8 12.3c0 .35-.28.64-.64.64-.35 0-.64-.28-.64-.64 0-.36.28-.64.64-.64.36 0 .64.28.64.64z" fill="#FFD43B"/>
  <path d="M15.2 11.7c0 .35-.28.64-.64.64-.35 0-.64-.28-.64-.64 0-.36.28-.64.64-.64.36 0 .64.28.64.64z" fill="#306998"/>
</svg>